<svg xmlns="http://www.w3.org/2000/svg" viewBox="0 0 481.55 457.98">
  <defs>
    <style>.cls-1{fill:#d9e021;}
    </style>
</defs>
<title>Asset 1</title><g id="Layer_2" data-name="Layer 2"><g id="Layer_1-2" data-name="Layer 1"><polygon class="cls-1" points="240.77 377.49 94.62 454.32 122.53 291.58 4.3 176.33 167.7 152.59 240.77 4.52 313.85 152.59 477.25 176.33 359.01 291.58 386.92 454.32 240.77 377.49"/><path d="M240.77,9l70.82,143.49.93,1.88,2.08.31,158.35,23L358.37,289.42l-1.51,1.46.36,2.08,27,157.71L242.63,376.21l-1.86-1-1.86,1L97.28,450.67,124.33,293l.35-2.08-1.5-1.46L8.6,177.72l158.35-23,2.08-.31.93-1.88L240.77,9m0-9-74.4,150.76L0,174.93,120.39,292.28,92,458l148.8-78.23L389.58,458l-28.42-165.7L481.55,174.93,315.18,150.76,240.77,0Z"/></g></g></svg>
