<svg xmlns="http://www.w3.org/2000/svg" viewBox="0 0 415.61 68.34"><title>Asset 2</title>
<g id="Layer_2" data-name="Layer 2"><g id="Layer_1-2" data-name="Layer 1">
  <path d="M0,.08H6.81v47H29.35v5.72H0Z"/>
  <path d="M69.9,33.58c0,14-9.7,20.12-18.86,20.12-10.25,0-18.16-7.52-18.16-19.49,0-12.68,8.3-20.12,18.79-20.12C62.55,14.09,69.9,22,69.9,33.58ZM39.85,34c0,8.3,4.77,14.56,11.5,14.56,6.58,0,11.51-6.18,11.51-14.71,0-6.42-3.21-14.56-11.35-14.56S39.85,26.77,39.85,34Z"/>
  <path d="M78.6,26.77c0-4.46-.08-8.3-.32-11.82h6l.24,7.44h.31c1.72-5.09,5.87-8.3,10.49-8.3a7.81,7.81,0,0,1,2,.23v6.5A10.81,10.81,0,0,0,95,20.59c-4.86,0-8.3,3.68-9.24,8.84a19.1,19.1,0,0,0-.31,3.21v20.2H78.6Z"/>
  <path d="M107.25,35.15c.16,9.31,6.11,13.15,13,13.15a24.8,24.8,0,0,0,10.49-2l1.18,4.93a30.66,30.66,0,0,1-12.61,2.35c-11.66,0-18.63-7.67-18.63-19.1s6.74-20.43,17.77-20.43c12.37,0,15.66,10.88,15.66,17.85a25.52,25.52,0,0,1-.24,3.21Zm20.2-4.93c.07-4.39-1.8-11.2-9.55-11.2-7,0-10,6.42-10.57,11.2Z"/>
  <path d="M142.63,25.21c0-3.92-.07-7.13-.31-10.26h6l.31,6.11h.24a13,13,0,0,1,11.89-7,11.2,11.2,0,0,1,10.73,7.59h.16a15.71,15.71,0,0,1,4.22-4.93,13,13,0,0,1,8.38-2.66c5,0,12.44,3.29,12.44,16.44V52.84H190V31.39c0-7.28-2.66-11.66-8.22-11.66-3.91,0-7,2.89-8.14,6.26a11.43,11.43,0,0,0-.55,3.44V52.84h-6.73V30.14c0-6-2.66-10.41-7.9-10.41-4.31,0-7.44,3.44-8.54,6.88a9.57,9.57,0,0,0-.54,3.37V52.84h-6.74Z"/>
  <path d="M232.19,4.31a4.27,4.27,0,0,1-8.53,0A4.2,4.2,0,0,1,228,0,4.09,4.09,0,0,1,232.19,4.31Zm-7.67,48.53V15h6.89V52.84Z"/>
  <path d="M242.84,27.32c0-4.85-.16-8.77-.32-12.37h6.19l.31,6.5h.16a14.89,14.89,0,0,1,13.46-7.36c9.16,0,16.05,7.75,16.05,19.26,0,13.62-8.3,20.35-17.22,20.35-5,0-9.4-2.19-11.67-6h-.15V68.34h-6.81Zm6.81,10.1a15.2,15.2,0,0,0,.31,2.81,10.63,10.63,0,0,0,10.33,8.07c7.28,0,11.51-5.95,11.51-14.64,0-7.59-4-14.09-11.27-14.09a11,11,0,0,0-10.41,8.53,11,11,0,0,0-.47,2.82Z"/>
  <path d="M286.44,45.79a18.09,18.09,0,0,0,9.08,2.74c5,0,7.36-2.5,7.36-5.63,0-3.29-2-5.09-7.05-7-6.81-2.43-10-6.18-10-10.72,0-6.11,4.94-11.12,13.08-11.12a18.92,18.92,0,0,1,9.31,2.35l-1.72,5a14.76,14.76,0,0,0-7.75-2.19c-4.07,0-6.34,2.34-6.34,5.16,0,3.13,2.27,4.54,7.2,6.42,6.58,2.51,9.94,5.79,9.94,11.43,0,6.65-5.16,11.35-14.17,11.35A21.66,21.66,0,0,1,284.72,51Z"/>
  <path d="M350.08,42.5c0,3.92.08,7.36.32,10.34h-6.11l-.39-6.19h-.16a14.24,14.24,0,0,1-12.52,7.05c-6,0-13.07-3.29-13.07-16.6V15H325v21c0,7.2,2.19,12,8.45,12a10,10,0,0,0,9.08-6.26,10.11,10.11,0,0,0,.63-3.52V15h6.88Z"/>
  <path d="M361.52,25.21c0-3.92-.08-7.13-.32-10.26h6l.31,6.11h.24a13.05,13.05,0,0,1,11.9-7,11.2,11.2,0,0,1,10.72,7.59h.16a15.71,15.71,0,0,1,4.22-4.93,13,13,0,0,1,8.38-2.66c5,0,12.45,3.29,12.45,16.44V52.84h-6.74V31.39c0-7.28-2.66-11.66-8.21-11.66-3.92,0-7,2.89-8.15,6.26a11.44,11.44,0,0,0-.54,3.44V52.84h-6.74V30.14c0-6-2.66-10.41-7.9-10.41-4.31,0-7.44,3.44-8.53,6.88a9.35,9.35,0,0,0-.55,3.37V52.84h-6.73Z"/>
</g></g></svg>
